<?xml version="1.0" encoding="UTF-8"?>
<svg id="Layer_1" xmlns="http://www.w3.org/2000/svg" version="1.1" viewBox="0 0 631.8 543.8">
  <!-- Generator: Adobe Illustrator 29.1.0, SVG Export Plug-In . SVG Version: 2.1.0 Build 142)  -->
  <defs>
    <style>
      .st0 {
        fill: #005356;
      }
    </style>
  </defs>
  <g>
    <path class="st0" d="M225.7,444.6c-3.5-1.9-7.5-2.9-11.9-2.9s-8.4,1-11.9,2.9c-3.5,1.9-6.3,4.6-8.3,8-2,3.4-3,7.3-3,11.5s1,8.1,3,11.5c2,3.4,4.8,6.1,8.3,8,3.5,1.9,7.5,2.9,11.9,2.9s8.4-1,11.9-2.9c3.5-1.9,6.3-4.6,8.3-8,2-3.4,3-7.3,3-11.5s-1-8.1-3-11.5c-2-3.4-4.8-6.1-8.3-8ZM226.4,471.4c-1.2,2.2-3,3.9-5.2,5.1-2.2,1.2-4.7,1.9-7.5,1.9s-5.2-.6-7.5-1.9c-2.2-1.2-3.9-2.9-5.2-5.1-1.2-2.2-1.9-4.6-1.9-7.3s.6-5.1,1.9-7.3c1.2-2.2,3-3.9,5.2-5.1,2.2-1.2,4.7-1.9,7.5-1.9s5.2.6,7.5,1.9c2.2,1.2,3.9,2.9,5.2,5.1,1.2,2.2,1.9,4.6,1.9,7.3s-.6,5.1-1.9,7.3Z"/>
    <path class="st0" d="M274.6,463.9v-.3c2.3-.9,4.1-2.2,5.3-4,1.2-1.8,1.9-3.8,1.9-6s-.7-4.2-2.2-6c-1.4-1.8-3.5-3.2-6-4.3-2.6-1.1-5.6-1.6-9-1.6s-5.4.4-7.5,1.3c-1.7.6-3.1,1.5-4.4,2.8v-4.6h-7.7v18h7.5v-2.2c0-1.5.5-2.8,1.4-4.1.9-1.2,2.3-2.2,4-2.8,1.7-.7,3.7-1,5.9-1s5.1.6,6.9,1.7,2.6,2.6,2.6,4.4-.6,2.8-1.7,3.8c-1.1,1-2.6,1.5-4.4,1.5h-1.2v-4h-6.5v15.3h6.5v-4.1h0c0,0,1.6,0,1.6,0,2,0,3.7.4,5,1.3,1.3.9,1.9,2.1,1.9,3.6s-.9,3.7-2.6,4.8c-1.7,1.2-4.2,1.7-7.5,1.7s-4.4-.4-6.4-1.2c-2-.8-3.5-1.9-4.6-3.2-1.1-1.4-1.7-2.9-1.7-4.7v-2.2h-7.8v18.7h7.8v-4.3c.6.5,1.2,1,1.9,1.5.7.5,1.4.9,2.2,1.2,2.5,1.1,5.4,1.6,8.7,1.6s7.1-.6,10-1.8c2.8-1.2,5-2.8,6.6-4.8,1.5-2,2.3-4.3,2.3-6.9s-.7-4.2-2.2-5.8c-1.5-1.6-3.6-2.8-6.5-3.5Z"/>
    <path class="st0" d="M378.7,444.6c-3.2-1.9-6.7-2.9-10.7-2.9s-6.2.6-8.8,1.9c-2.6,1.2-4.6,2.9-6.1,5.1v-6.1h-14.6v8.2h7.1v22c-8.2-4.5-12.8-2.7-23,2.5l-2.9,1.5c-1.3.6-2.5,1.1-3.7,1.4h0c-.3,0-.7.2-1,.2-5.1,1.2-9.2,0-11.7-1.4-1.4-.9-2.7-1.9-3.7-3.3-1.3-1.7-2.2-3.6-2.6-5.8h35.6c0-.6.1-1.3.1-1.9,0-.6,0-1.3,0-1.9,0-4.4-.9-8.3-2.8-11.6-1.9-3.4-4.5-6-7.8-7.9-3.3-1.9-7.1-2.8-11.4-2.8s-8,1-11.4,2.9c-3.4,1.9-6.1,4.6-8,8.1s-2.9,7.4-2.9,11.8.9,8.3,2.8,11.6c1.9,3.3,4.5,5.9,7.7,7.7,3.2,1.8,6.9,2.7,11,2.7s3-.1,4.5-.4c.5,0,1-.2,1.5-.3h0c2.2-.5,4.5-1.3,7-2.5l2.9-1.5c10.2-5.2,11.8-6,19.7-.4v13.3h-7.1v8.2h27v-7.8h-11.7v-15.2c1.5,2,3.5,3.6,6,4.8,2.5,1.2,5.2,1.8,8.3,1.8s7.4-1,10.6-2.9c3.2-2,5.6-4.6,7.5-8.1,1.8-3.4,2.7-7.2,2.7-11.4s-.9-8.1-2.7-11.5c-1.8-3.4-4.3-6.1-7.4-8ZM299.6,454.7c1.3-1.7,2.8-3.1,4.7-4,1.9-.9,4-1.4,6.2-1.4s4.4.5,6.3,1.4c1.9.9,3.5,2.2,4.7,3.9s2.1,3.7,2.5,5.9h-26.9c.4-2.1,1.2-4.1,2.5-5.8ZM378.2,471.4c-1.2,2.2-2.8,3.9-4.9,5.1-2.1,1.2-4.3,1.9-6.8,1.9s-4.7-.6-6.7-1.9c-2-1.2-3.6-2.9-4.7-5.1-1.2-2.2-1.7-4.6-1.7-7.2s.6-5.1,1.7-7.2c1.1-2.2,2.7-3.9,4.7-5.1,2-1.2,4.3-1.9,6.7-1.9s4.7.6,6.8,1.9c2.1,1.2,3.7,2.9,4.9,5.1,1.2,2.2,1.8,4.6,1.8,7.2s-.6,5.1-1.8,7.2Z"/>
    <path class="st0" d="M438.4,452.6c-2-3.4-4.8-6.1-8.3-8-3.5-1.9-7.5-2.9-11.9-2.9s-8.4,1-11.9,2.9c-3.5,1.9-6.3,4.6-8.3,8-2,3.4-3,7.3-3,11.5s1,8.1,3,11.5c2,3.4,4.8,6.1,8.3,8,3.5,1.9,7.5,2.9,11.9,2.9s8.4-1,11.9-2.9c3.5-1.9,6.3-4.6,8.3-8,2-3.4,3-7.3,3-11.5s-1-8.1-3-11.5ZM430.7,471.4c-1.2,2.2-3,3.9-5.2,5.1-2.2,1.2-4.7,1.9-7.5,1.9s-5.2-.6-7.5-1.9c-2.2-1.2-3.9-2.9-5.2-5.1-1.2-2.2-1.9-4.6-1.9-7.3s.6-5.1,1.9-7.3c1.2-2.2,3-3.9,5.2-5.1,2.2-1.2,4.7-1.9,7.5-1.9s5.2.6,7.5,1.9c2.2,1.2,3.9,2.9,5.2,5.1,1.2,2.2,1.9,4.6,1.9,7.3s-.6,5.1-1.9,7.3Z"/>
  </g>
  <path class="st0" d="M407.2,198.6c-13.6-58.2-14.6-105.1-14.6-105.1h31.6v-52.6h-216.5v52.6h31.5s-1,46.9-14.6,105.1h-35v99.7h49.4c-2.1-30,2.6-62.3,15.1-93.8,7.2-18.1,16.3-34.5,27-49.2,17.6-24.1,39.3-43.1,62.9-56,4.4-2.4,8.8-4.5,13.3-6.5-1.1,1.5-2.2,3-3.3,4.6-3.3,5-6.2,10.4-8.7,16.2-.3.8-.7,1.6-1,2.4-2.6,6.6-.5,13.3,3.6,20,7.9,12.8,23,25.6,25.6,37.1-3.1-4.9-11.8-9-21.9-12.1-15.7-4.9-34.8-7.4-41.3-6.6-15.6,2-26.4,22-26.8,47,0,3.5.1,7.1.5,10.8,0,.9.2,1.8.3,2.6,1.8,14,6.5,26.5,12.8,35.7h47.4c2.2,0,4.4.2,6.5.5,9.8,1.4,18.6,6,25.3,12.7,6.8,6.8,11.5,15.8,12.8,25.9.2,1.9.4,3.9.4,5.9v2.7h52.7v-99.7h-35ZM320.4,195.2c-3.9,0-7.1-3.2-7.1-7.1s3.2-7.1,7.1-7.1,7.1,3.2,7.1,7.1-3.2,7.1-7.1,7.1Z"/>
  <g>
    <path class="st0" d="M126.3,387.3c-4.6-19.5-4.9-35.3-4.9-35.3h10.6v-17.6H59.3v17.6h10.6s-.4,15.8-4.9,35.3h-11.8v33.5h17.8v-15.8h49.2v15.8h17.8v-33.5h-11.8ZM81,388.3c1.3-6.1,2.4-12.2,3.3-18.2.9-6,1.6-12.2,2.1-18.7h18.5c.5,6.5,1.1,12.7,2.1,18.7.9,6,2,12,3.3,18.2h-29.2Z"/>
    <path class="st0" d="M266.9,387.3c-4.6-19.5-4.9-35.3-4.9-35.3h10.6v-17.6h-72.7v17.6h10.6s-.4,15.8-4.9,35.3h-11.8v33.5h17.8v-15.8h49.2v15.8h17.8v-33.5h-11.8ZM221.6,388.3c1.3-6.1,2.4-12.2,3.3-18.2.9-6,1.6-12.2,2.1-18.7h18.5c.5,6.5,1.1,12.7,2.1,18.7.9,6,2,12,3.3,18.2h-29.2Z"/>
    <path class="st0" d="M145.6,387.3h11.6v-35.3h-11.6v-17.7h29.2v53h11.4v17.7h-40.7v-17.7ZM149.9,326.9v-27.7l26.6,13.1v1.6l-26.6,13Z"/>
    <path class="st0" d="M459.3,387.3h11.6v-35.3h-11.6v-17.7h29.2v53h11.4v17.7h-40.7v-17.7ZM463.7,326.9v-27.7l26.6,13.1v1.6l-26.6,13Z"/>
    <path class="st0" d="M451.7,352h-10.6v35.3h10.6v17.7h-37.8v-17.7h9.6v-35.7h-20.6v2.1c-.5,10.6-1.3,19.6-2.4,26.8-3,21.5-21.4,24.8-29.6,24.9h0s-44.7,0-44.7,0v-18.1h9.5v-27.7l-30.1,45.8h-16.1v-53.4h-9.3v-17.6h32.1v17.6h-5.1v24.6l28.1-42.2h28.2v17.6h-10.6v35.5s23,1.9,28.5-3.7c1.8-1.8,2.3-5.8,2.9-9.8.9-6.9,1.4-22,1.4-22h-9.7v-17.6h75.8v17.6Z"/>
    <path class="st0" d="M568.1,370.9h0v-2.5h0c3.3-1.5,5.9-3.5,7.7-6.2,1.8-2.7,2.8-5.8,2.8-9.4,0-5.7-2.2-10.3-6.7-13.6-4.5-3.3-10.6-4.9-18.3-4.9h-46v17.7h10.7v35.3h-10.7v17.7h46c7.7,0,13.8-1.6,18.3-4.9,4.5-3.3,6.7-7.8,6.7-13.6s-.9-6.7-2.8-9.4c-1.8-2.7-4.4-4.7-7.7-6.1ZM535.8,350.2h14.8c2.6,0,4.7.6,6.2,1.8,1.5,1.2,2.3,2.8,2.3,4.7s-.8,3.6-2.3,4.8c-1.6,1.2-3.7,1.8-6.3,1.8h-14.7v-13.1ZM556.8,387.3c-1.5,1.2-3.6,1.8-6.2,1.8h-14.8v-13.1h14.7c2.6,0,4.7.6,6.3,1.8,1.6,1.2,2.3,2.8,2.3,4.8s-.8,3.6-2.3,4.7Z"/>
  </g>
</svg>